<svg xmlns="http://www.w3.org/2000/svg" width="24" height="24" viewBox="0 0 24 24">
  <path d="M6.297,19.658L11.999,15.8L17.702,19.657L17.702,5.763C17.702,4.881 16.984,4.163 16.102,4.163L7.897,4.163C7.015,4.163 6.297,4.881 6.297,5.763L6.297,19.658M18.1,21.413C17.912,21.413 17.719,21.359 17.542,21.239L11.999,17.49L6.458,21.239C5.793,21.689 4.897,21.213 4.897,20.411L4.897,5.763C4.897,4.106 6.24,2.763 7.897,2.763L16.102,2.763C17.759,2.763 19.102,4.106 19.102,5.763L19.102,20.411C19.102,21 18.619,21.413 18.1,21.413Z" fill="#ed127a"/>
</svg>
