<svg xmlns="http://www.w3.org/2000/svg" width="16" height="16" viewBox="0 0 16 16">
  <path d="M0,0h16v16h-16z" fill-opacity="0.005" fill="#888888" stroke="none"/>
  <path d="M0.5,0.5h15v15h-15z" fill-opacity="0.005" fill="none" stroke="#707070" stroke-opacity="0.005" stroke-width="1"/>
  <path d="M6.048,13.072L2.484,13.072a1.076,1.076 0,0 1,-1.077 -1.072L1.407,5.339L14.591,5.339L14.591,7.107a0.453,0.453 0,1 0,0.906 0L15.497,2.978a1.981,1.981 0,0 0,-1.978 -1.978L2.484,1A1.983,1.983 0,0 0,0.5 2.978v9.021a1.983,1.983 0,0 0,1.984 1.978L6.048,13.977a0.453,0.453 0,0 0,0 -0.907ZM2.484,1.906L13.519,1.906a1.074,1.074 0,0 1,1.072 1.072L14.591,4.432L1.406,4.432L1.406,2.978A1.076,1.076 0,0 1,2.484 1.906Z" fill="#888888"/>
  <path d="M3.116,3.601a0.435,0.435 0,1 0,-0.435 -0.435A0.435,0.435 0,0 0,3.116 3.601Z" fill="#888888"/>
  <path d="M4.649,3.601a0.435,0.435 0,1 0,-0.435 -0.435A0.435,0.435 0,0 0,4.649 3.601Z" fill="#888888"/>
  <path d="M6.182,3.601a0.435,0.435 0,1 0,-0.435 -0.435A0.435,0.435 0,0 0,6.182 3.601Z" fill="#888888"/>
  <path d="M15.243,9.027a2.955,2.955 0,0 0,-1.967 -0.7,3.056 3.056,0 0,0 -1.774,0.545 3.052,3.052 0,0 0,-1.774 -0.545,2.955 2.955,0 0,0 -1.967,0.7 0.792,0.792 0,0 0,-0.256 0.591v3.213a0.789,0.789 0,0 0,0.384 0.682,0.812 0.812,0 0,0 0.807,0.019 2.212,2.212 0,0 1,1.032 -0.243,2 2,0 0,1 1.443,0.548 0.453,0.453 0,0 0,0.66 0,1.994 1.994,0 0,1 1.443,-0.548 2.212,2.212 0,0 1,1.032 0.243,0.814 0.814,0 0,0 0.807,-0.019 0.789,0.789 0,0 0,0.384 -0.682L15.497,9.617A0.8,0.8 0,0 0,15.243 9.027ZM8.411,12.667L8.411,9.667a2.2,2.2 0,0 1,2.638 0.015L11.049,12.667A3.216,3.216 0,0 0,8.411 12.667ZM14.59,12.667a3.334,3.334 0,0 0,-2.638 0.013v-3A2.2,2.2 0,0 1,14.59 9.667Z" fill="#888888"/>
</svg>