<svg xmlns="http://www.w3.org/2000/svg" width="24dp" height="24dp" viewBox="0 0 24 24">
  <path d="M20.046,10.623L14.53,10.623A1.611,1.611 0,0 1,12.921 9.014L12.921,3.498A1.611,1.611 0,0 1,14.53 1.889h5.516a1.611,1.611 0,0 1,1.609 1.609L21.655,9.014A1.611,1.611 0,0 1,20.046 10.623ZM14.53,3.268a0.23,0.23 0,0 0,-0.23 0.23L14.3,9.014a0.23,0.23 0,0 0,0.23 0.23h5.516a0.23,0.23 0,0 0,0.23 -0.23L20.276,3.498a0.23,0.23 0,0 0,-0.23 -0.23Z" fill="#888" stroke="#888" stroke-width="0.2"/>
  <path d="M17.288,22.111a1.6,1.6 0,0 1,-1.138 -0.47l-3.214,-3.214a1.611,1.611 0,0 1,0 -2.275l3.214,-3.214a1.61,1.61 0,0 1,2.275 0l3.214,3.214a1.61,1.61 0,0 1,0 2.275l-3.214,3.214A1.6,1.6 0,0 1,17.288 22.111ZM17.288,13.845a0.228,0.228 0,0 0,-0.163 0.067L13.911,17.125a0.23,0.23 0,0 0,0 0.325l3.214,3.214a0.23,0.23 0,0 0,0.325 0l3.214,-3.214a0.23,0.23 0,0 0,0 -0.325L17.451,13.911A0.228,0.228 0,0 0,17.288 13.844Z" fill="#888" stroke="#888" stroke-width="0.2"/>
  <path d="M9.014,10.623L3.498,10.623A1.611,1.611 0,0 1,1.889 9.014L1.889,3.498A1.611,1.611 0,0 1,3.498 1.889L9.014,1.889A1.611,1.611 0,0 1,10.623 3.498L10.623,9.014A1.611,1.611 0,0 1,9.014 10.623ZM3.498,3.268a0.23,0.23 0,0 0,-0.23 0.23L3.268,9.014a0.23,0.23 0,0 0,0.23 0.23L9.014,9.244a0.23,0.23 0,0 0,0.23 -0.23L9.244,3.498a0.23,0.23 0,0 0,-0.23 -0.23Z" fill="#888" stroke="#888" stroke-width="0.2"/>
  <path d="M9.014,21.655L3.498,21.655A1.611,1.611 0,0 1,1.889 20.046L1.889,14.53A1.611,1.611 0,0 1,3.498 12.921L9.014,12.921a1.611,1.611 0,0 1,1.609 1.609v5.516A1.611,1.611 0,0 1,9.014 21.655ZM3.498,14.3a0.23,0.23 0,0 0,-0.23 0.23v5.516a0.23,0.23 0,0 0,0.23 0.23L9.014,20.276a0.23,0.23 0,0 0,0.23 -0.23L9.244,14.53a0.23,0.23 0,0 0,-0.23 -0.23Z" fill="#888" stroke="#888" stroke-width="0.2"/>
</svg>