<svg xmlns="http://www.w3.org/2000/svg" width="24dp" height="24dp" viewBox="0 0 24 24">
  <path d="M14.672,1.881L19.913,1.881A1.75,1.75 0,0 1,21.663 3.631L21.663,8.872A1.75,1.75 0,0 1,19.913 10.622L14.672,10.622A1.75,1.75 0,0 1,12.922 8.872L12.922,3.631A1.75,1.75 0,0 1,14.672 1.881z" fill="#ed127a"/>
  <path d="M21.647,16.153l-3.217,-3.217a1.613,1.613 0,0 0,-2.277 0l-3.217,3.217a1.612,1.612 0,0 0,0 2.277l3.217,3.217a1.612,1.612 0,0 0,2.277 0l3.217,-3.217A1.611,1.611 0,0 0,21.647 16.153Z" fill="#ed127a"/>
  <path d="M3.631,1.881L8.872,1.881A1.75,1.75 0,0 1,10.622 3.631L10.622,8.872A1.75,1.75 0,0 1,8.872 10.622L3.631,10.622A1.75,1.75 0,0 1,1.881 8.872L1.881,3.631A1.75,1.75 0,0 1,3.631 1.881z" fill="#ed127a"/>
  <path d="M3.631,12.922L8.872,12.922A1.75,1.75 0,0 1,10.622 14.672L10.622,19.913A1.75,1.75 0,0 1,8.872 21.663L3.631,21.663A1.75,1.75 0,0 1,1.881 19.913L1.881,14.672A1.75,1.75 0,0 1,3.631 12.922z" fill="#ed127a"/>
</svg>