<svg xmlns="http://www.w3.org/2000/svg" viewBox="0 0 16 16">
  <path d="M13.98 13.441h-1.8a1.635 1.635 0 0 0-3.139 0H1.356a0.47 0.47 0 0 0 0 0.941h7.683a1.635 1.635 0 0 0 3.138 0h1.8a0.47 0.47 0 0 0 0-0.941ZM10.609 14.617a0.706 0.706 0 1 1 0.706-0.706 0.706 0.706 0 0 1-0.706 0.706Z" fill="#ee4166"></path>
  <path d="M13.522 1.444H2.363A1.479 1.479 0 0 0 0.886 2.921v7.4A1.479 1.479 0 0 0 2.363 11.794H13.522a1.479 1.479 0 0 0 1.477-1.477v-7.4A1.479 1.479 0 0 0 13.522 1.444ZM14.058 10.317a0.537 0.537 0 0 1-0.536 0.536H2.363a0.537 0.537 0 0 1-0.536-0.536v-7.4a0.537 0.537 0 0 1 0.536-0.536H13.522a0.537 0.537 0 0 1 0.536 0.536Z" fill="#ee4166"></path>
  <path d="M10.545 6.22L6.782 3.868a0.47 0.47 0 0 0-0.72 0.4v4.7a0.47 0.47 0 0 0 0.72 0.4l3.764-2.352a0.47 0.47 0 0 0 0-0.8ZM7.002 8.12V5.113l2.405 1.505Z" fill="#ee4166"></path>
</svg>